#N canvas 243 110 1122 633 10;
#X declare -path Fraise -stdpath Fraise;
#X declare -path AutoPreset;
#X declare -path domoTools/gammabs;
#N canvas 583 88 443 542 Fraise 0;
#X obj 27 155 fruit/receive KEG2;
#X obj 27 185 route A s, f 25;
#X obj 27 216 unpack f f;
#X obj 27 260 pack f f, f 10;
#X obj 84 239 / 4095;
#X msg 27 281 A \$1 \$2;
#X obj 27 302 s fromKEG2;
#X msg 100 281 S \$1 \$2;
#X obj 193 185 route A s, f 25;
#X obj 193 216 unpack f f;
#X obj 193 260 pack f f, f 10;
#X obj 250 239 / 4095;
#X msg 193 281 A \$1 \$2;
#X msg 266 281 S \$1 \$2;
#X obj 193 155 fruit/receive KEG3;
#X obj 193 302 s fromKEG3;
#X obj 32 75 pied/pied 0 41424;
#X obj 122 11 declare -path Fraise -stdpath Fraise;
#X obj 189 44 fruit/fruit 1 KEG2 21 KE;
#X obj 189 92 fruit/fruit 1 KEG3 22 KE;
#X obj 31 348 r fromKEG2;
#X obj 31 483 s MASTER-G-floatpattern;
#X obj 31 395 spigot;
#X obj 154 327 inlet enable;
#X obj 56 452 s MASTER-GR-floatpattern;
#X obj 224 449 s masterGouttesDirect;
#X obj 31 420 route 0 1 2 3 4, f 24;
#X obj 223 469 s masterGouttesRev;
#X obj 199 503 s masterGouttesRevSetting;
#X obj 31 371 route A s;
#X obj 32 1 loadbang;
#X msg 32 53 0;
#X obj 32 27 del 1000;
#X connect 0 0 1 0;
#X connect 1 0 2 0;
#X connect 1 1 7 0;
#X connect 2 0 3 0;
#X connect 2 1 4 0;
#X connect 3 0 5 0;
#X connect 4 0 3 1;
#X connect 5 0 6 0;
#X connect 7 0 6 0;
#X connect 8 0 9 0;
#X connect 8 1 13 0;
#X connect 9 0 10 0;
#X connect 9 1 11 0;
#X connect 10 0 12 0;
#X connect 11 0 10 1;
#X connect 12 0 15 0;
#X connect 13 0 15 0;
#X connect 14 0 8 0;
#X connect 20 0 29 0;
#X connect 22 0 26 0;
#X connect 23 0 22 1;
#X connect 26 0 21 0;
#X connect 26 1 24 0;
#X connect 26 2 28 0;
#X connect 26 3 27 0;
#X connect 26 4 25 0;
#X connect 29 0 22 0;
#X connect 30 0 32 0;
#X connect 31 0 16 0;
#X connect 32 0 31 0;
#X restore 681 406 pd Fraise;
#X obj 263 440 catch~ revAl;
#X obj 293 458 catch~ revAr;
#X obj 798 101 MORPHgroup MASTER G;
#X obj 798 169 MORPHgroup MASTER GR;
#X obj 12 8 goutte 1 1 2 Al;
#X obj 31 399 catch~ out1;
#X obj 107 399 catch~ out2;
#X obj 183 399 catch~ out3;
#X obj 260 399 catch~ out4;
#X obj 263 501 *~;
#X obj 294 499 *~;
#X obj 309 477 line~;
#X obj 379 432 hsl 128 15 0 1 0 1 empty masterGouttesRev masterGouttesRev
-2 -8 0 10 -262144 -1 -1 6000 1;
#X obj 376 452 pow 2;
#X msg 376 473 \$1 20;
#X obj 31 420 *~;
#X obj 108 420 *~;
#X obj 184 420 *~;
#X obj 261 420 *~;
#X obj 150 371 line~;
#X obj 153 310 hsl 128 15 0 1 0 1 empty masterGouttesDirect masterGouttesDirect
-2 -8 0 10 -262144 -1 -1 7141 1;
#X obj 150 330 pow 2;
#X msg 150 351 \$1 20;
#N canvas 111 82 357 184 APMASTER 1;
#X obj 22 29 declare -path AutoPreset;
#X obj 22 53 apmaster MASTER;
#X obj 23 79 loadbang;
#X obj 23 100 bng 15 250 50 0 empty empty load 17 7 0 10 -4034 -1 -1
;
#X obj 23 120 apmasterfile MASTER settings.txt;
#X obj 210 101 bng 15 250 50 0 empty empty save 17 7 0 10 -258113 -1
-1;
#X obj 210 80 inlet;
#X connect 2 0 3 0;
#X connect 3 0 4 0;
#X connect 5 0 4 1;
#X connect 6 0 5 0;
#X restore 797 23 pd APMASTER;
#X obj 797 2 bng 15 250 50 0 empty empty save 17 7 0 10 -258113 -1
-1;
#X obj 798 43 loadbang;
#X msg 798 64 \; pd dsp 1;
#X obj 836 348 tgl 15 0 empty empty empty 17 7 0 10 -262144 -1 -1 0
1;
#N canvas 35 389 538 298 testmetros 0;
#X obj 37 37 inlet;
#X obj 85 233 s G1-BANG;
#X obj 156 211 metro 2763;
#X obj 156 232 s G2-BANG;
#X obj 105 126 tgl 15 0 empty empty empty 17 7 0 10 -262144 -1 -1 0
1;
#X obj 126 126 tgl 15 0 empty empty empty 17 7 0 10 -262144 -1 -1 0
1;
#X obj 148 126 tgl 15 0 empty empty empty 17 7 0 10 -262144 -1 -1 0
1;
#X obj 169 126 tgl 15 0 empty empty empty 17 7 0 10 -262144 -1 -1 0
1;
#X obj 192 126 tgl 15 0 empty empty empty 17 7 0 10 -262144 -1 -1 0
1;
#X obj 213 126 tgl 15 0 empty empty empty 17 7 0 10 -262144 -1 -1 0
1;
#X obj 85 212 metro 1837;
#X obj 230 211 metro 1237;
#X obj 301 210 metro 3215;
#X obj 373 209 metro 2137;
#X obj 444 208 metro 2415;
#X obj 230 232 s G3-BANG;
#X obj 301 231 s G4-BANG;
#X obj 373 230 s G5-BANG;
#X obj 444 229 s G6-BANG;
#X connect 0 0 4 0;
#X connect 0 0 5 0;
#X connect 0 0 6 0;
#X connect 0 0 9 0;
#X connect 0 0 8 0;
#X connect 0 0 7 0;
#X connect 2 0 3 0;
#X connect 4 0 10 0;
#X connect 5 0 2 0;
#X connect 6 0 11 0;
#X connect 7 0 12 0;
#X connect 8 0 13 0;
#X connect 9 0 14 0;
#X connect 10 0 1 0;
#X connect 11 0 15 0;
#X connect 12 0 16 0;
#X connect 13 0 17 0;
#X connect 14 0 18 0;
#X coords 0 -1 1 1 134 49 1 100 100;
#X restore 836 368 pd testmetros;
#X obj 681 386 tgl 15 0 empty empty empty 17 7 0 10 -258705 -1 -1 0
1;
#X obj 680 433 loadbang;
#N canvas 41 81 521 400 freeze-master 0;
#X obj 98 295 *~;
#X obj 175 295 *~;
#X obj 251 295 *~;
#X obj 328 295 *~;
#X obj 98 320 dac~ 1 2 3 4, f 39;
#X obj 342 238 line~;
#X obj 345 177 hsl 128 15 0 1 0 1 empty masterGouttes masterGouttes
-2 -8 0 10 -262144 -1 -1 9200 1;
#X obj 342 197 pow 2;
#X msg 342 218 \$1 20;
#X obj 97 128 freeze;
#X obj 98 105 inlet~;
#X obj 144 128 freeze;
#X obj 145 105 inlet~;
#X obj 190 128 freeze;
#X obj 191 105 inlet~;
#X obj 237 128 freeze;
#X obj 238 105 inlet~;
#X obj 354 82 tgl 15 0 empty empty empty 17 7 0 10 -262144 -1 -1 0
1;
#X obj 354 123 s FREEZE;
#X obj 397 80 tgl 15 0 empty empty empty 17 7 0 10 -262144 -1 -1 0
1;
#X obj 397 100 * 80;
#X obj 433 80 tgl 15 0 empty empty empty 17 7 0 10 -262144 -1 -1 0
1;
#X obj 433 100 * 40;
#X obj 467 79 tgl 15 0 empty empty empty 17 7 0 10 -262144 -1 -1 0
1;
#X obj 467 99 * 20;
#X obj 355 4 r fromKEG2;
#X obj 355 27 route S;
#X obj 355 48 route 4 3 6 5;
#X obj 354 102 * 133;
#X connect 0 0 4 0;
#X connect 1 0 4 1;
#X connect 2 0 4 2;
#X connect 3 0 4 3;
#X connect 5 0 3 1;
#X connect 5 0 2 1;
#X connect 5 0 1 1;
#X connect 5 0 0 1;
#X connect 6 0 7 0;
#X connect 7 0 8 0;
#X connect 8 0 5 0;
#X connect 9 0 0 0;
#X connect 10 0 9 0;
#X connect 11 0 1 0;
#X connect 12 0 11 0;
#X connect 13 0 2 0;
#X connect 14 0 13 0;
#X connect 15 0 3 0;
#X connect 16 0 15 0;
#X connect 17 0 28 0;
#X connect 19 0 20 0;
#X connect 20 0 18 0;
#X connect 21 0 22 0;
#X connect 22 0 18 0;
#X connect 23 0 24 0;
#X connect 24 0 18 0;
#X connect 25 0 26 0;
#X connect 26 0 27 0;
#X connect 27 0 17 0;
#X connect 27 1 19 0;
#X connect 27 2 21 0;
#X connect 27 3 23 0;
#X connect 28 0 18 0;
#X restore 31 599 pd freeze-master;
#N canvas 1 81 792 534 BASSE 0;
#X obj 216 172 unpack;
#X obj 216 258 mtof;
#X obj 216 279 osc~;
#X obj 331 59 route A;
#X obj 331 36 r fromKEG3;
#X obj 331 80 route 0 1 2 3 4;
#X msg 356 163 \$1 10;
#X obj 356 184 line~;
#X obj 216 333 *~;
#X obj 407 149 pow 2;
#X msg 407 191 \$1 10;
#X obj 407 212 line~;
#X obj 178 407 +~;
#X obj 151 473 dac~ 1 2 3 4;
#X obj 283 230 s BASSE_NOTE;
#X obj 216 235 i;
#X obj 216 205 + 0.5;
#X text 408 278 28 33 38 43;
#X obj 99 193 s BASSE_NOTE-raw;
#X obj 443 385 r BASSE_NOTE-raw;
#X obj 443 406 - 28;
#X obj 443 448 fmod 5;
#X obj 443 427 + 2.5;
#X obj 443 469 - 2.5;
#X obj 443 503 s showtuner;
#X msg 407 458 0;
#X obj 538 12 r fromKEG3;
#X obj 538 35 route S;
#X obj 538 56 t a a;
#X obj 610 123 route 4 3 6 5, f 19;
#X obj 637 150 * 2;
#X obj 665 148 * 4;
#X obj 693 149 * 8;
#X obj 665 196 +;
#X obj 637 197 +;
#X obj 610 197 +;
#X obj 595 221 f;
#X obj 543 165 t b b b b;
#X obj 516 118 t f b;
#X obj 543 143 b;
#X obj 595 243 != 0;
#X obj 216 306 *~;
#X obj 312 328 *~ 0.2;
#X obj 312 349 +~ 1;
#X obj 312 370 *~;
#X obj 363 360 line~;
#X obj 216 354 hip~ 5;
#X msg 363 339 \$1 10;
#X obj 407 170 * 0.1;
#X obj 530 252 + 27;
#X obj 312 307 osc~;
#X obj 516 89 route 4 3 6 5, f 19;
#X obj 679 241 route 0;
#X obj 679 274 sel 1;
#X obj 595 343 tgl 15 0 empty empty empty 17 7 0 10 -262144 -1 -1 0
1;
#X obj 616 421 t b f;
#X obj 616 442 del 100;
#X obj 616 463 f;
#X obj 577 395 sel 27;
#X msg 577 422 stop;
#X obj 601 485 f;
#X obj 356 120 pow 3;
#X obj 355 142 * 10;
#X obj 595 287 spigot 1;
#X obj 638 261 == 0;
#X obj 294 150 * 20;
#X obj 294 171 t b f;
#X obj 294 192 +, f 5;
#X obj 100 97 switch~;
#X connect 0 0 16 0;
#X connect 0 0 18 0;
#X connect 1 0 2 0;
#X connect 2 0 41 0;
#X connect 3 0 5 0;
#X connect 4 0 3 0;
#X connect 5 1 65 0;
#X connect 5 2 61 0;
#X connect 5 3 42 1;
#X connect 5 4 9 0;
#X connect 6 0 7 0;
#X connect 7 0 50 0;
#X connect 8 0 46 0;
#X connect 9 0 48 0;
#X connect 10 0 11 0;
#X connect 11 0 8 1;
#X connect 12 0 13 0;
#X connect 12 0 13 1;
#X connect 12 0 13 2;
#X connect 12 0 13 3;
#X connect 15 0 1 0;
#X connect 16 0 15 0;
#X connect 19 0 20 0;
#X connect 20 0 22 0;
#X connect 21 0 23 0;
#X connect 22 0 21 0;
#X connect 23 0 24 0;
#X connect 25 0 24 0;
#X connect 26 0 27 0;
#X connect 27 0 28 0;
#X connect 28 0 51 0;
#X connect 28 1 29 0;
#X connect 29 0 35 0;
#X connect 29 1 30 0;
#X connect 29 2 31 0;
#X connect 29 3 32 0;
#X connect 30 0 34 0;
#X connect 31 0 33 0;
#X connect 32 0 33 1;
#X connect 33 0 34 1;
#X connect 34 0 35 1;
#X connect 35 0 36 1;
#X connect 36 0 40 0;
#X connect 36 0 49 0;
#X connect 37 0 36 0;
#X connect 37 1 35 0;
#X connect 37 2 34 0;
#X connect 37 3 33 0;
#X connect 38 1 39 0;
#X connect 39 0 37 0;
#X connect 40 0 63 0;
#X connect 41 0 8 0;
#X connect 42 0 43 0;
#X connect 43 0 44 0;
#X connect 44 0 41 1;
#X connect 45 0 44 1;
#X connect 46 0 12 0;
#X connect 47 0 45 0;
#X connect 48 0 10 0;
#X connect 49 0 58 0;
#X connect 49 0 67 0;
#X connect 50 0 42 0;
#X connect 51 0 38 0;
#X connect 51 1 38 0;
#X connect 51 2 38 0;
#X connect 51 3 38 0;
#X connect 51 4 52 0;
#X connect 52 0 53 0;
#X connect 52 0 64 0;
#X connect 53 0 54 0;
#X connect 53 0 60 0;
#X connect 54 0 47 0;
#X connect 55 0 56 0;
#X connect 55 1 57 1;
#X connect 56 0 57 0;
#X connect 57 0 60 1;
#X connect 58 0 59 0;
#X connect 58 1 55 0;
#X connect 59 0 56 0;
#X connect 60 0 67 0;
#X connect 61 0 62 0;
#X connect 62 0 6 0;
#X connect 63 0 54 0;
#X connect 65 0 66 0;
#X connect 66 0 67 0;
#X connect 66 1 67 1;
#X connect 67 0 1 0;
#X connect 67 0 14 0;
#X restore 848 268 pd BASSE;
#X obj 336 238 MORPHgroup MASTER B;
#X text 992 474 3;
#X text 1046 525 OUT3;
#X text 975 508 6;
#X floatatom 438 489 5 0 0 0 - - -;
#X obj 482 503 r masterGouttesRevSetting;
#X obj 482 524 maxlib/scale 0 1 70 97;
#X floatatom 462 546 5 0 130 0 - - -;
#X obj 462 566 mtof;
#X floatatom 465 597 5 0 0 0 - - -;
#X obj 263 545 rev3~ 100 95 1100 50;
#X obj 261 348 hip~ 100;
#X obj 889 13 declare -path domoTools/gammabs;
#X obj 722 238 GAMMEKBV GAMME;
#X obj 966 271 r GAMME;
#X floatatom 966 292 5 0 0 0 - - -;
#X obj 1020 271 loadbang;
#X obj 1020 313 s GAMME;
#N canvas 1 82 497 327 transpose 0;
#X obj 153 39 r GAMME;
#X obj 153 92 pack f 0;
#X obj 212 48 t b f;
#X floatatom 222 27 5 0 0 0 - - -;
#X obj 153 113 t a a, f 16;
#X obj 248 134 <<;
#X obj 248 155 & 4095;
#X obj 153 135 unpack f f;
#X obj 210 157 * -1;
#X obj 210 178 + 12;
#X obj 153 205 >>, f 10;
#X obj 153 226 +, f 17;
#X floatatom 99 270 5 0 0 0 - - -;
#X obj 153 251 s GAMMET;
#X obj 239 71 mod 12;
#X obj 371 22 r BASSE_NOTE;
#X obj 396 98 r fromKEG3;
#X obj 396 119 route S;
#X obj 344 86 f;
#X obj 396 161 sel 1;
#X floatatom 439 54 5 0 0 0 - - -;
#X obj 371 64 * 1;
#X obj 371 43 - 36;
#X floatatom 347 242 5 0 0 0 - - -;
#X floatatom 442 192 5 0 0 0 - - -;
#X obj 396 140 route 1;
#X obj 25 10 loadbang;
#X obj 25 32 tgl 15 0 empty empty empty 17 7 0 10 -262144 -1 -1 1 1
;
#X obj 31 55 metro 16000;
#X obj 31 101 sel 0;
#X obj 31 124 random 12;
#X obj 10 83 bng 15 250 50 0 empty empty empty 17 7 0 10 -262144 -1
-1;
#X floatatom 24 156 5 0 0 0 - - -;
#X floatatom 98 121 5 0 0 0 - - -;
#X obj 31 78 random 10;
#X connect 0 0 1 0;
#X connect 1 0 4 0;
#X connect 2 0 1 0;
#X connect 2 1 14 0;
#X connect 3 0 2 0;
#X connect 4 0 7 0;
#X connect 4 1 5 0;
#X connect 5 0 6 0;
#X connect 6 0 11 1;
#X connect 7 0 10 0;
#X connect 7 1 8 0;
#X connect 8 0 9 0;
#X connect 9 0 10 1;
#X connect 10 0 11 0;
#X connect 11 0 12 0;
#X connect 11 0 13 0;
#X connect 14 0 1 1;
#X connect 15 0 20 0;
#X connect 15 0 22 0;
#X connect 16 0 17 0;
#X connect 17 0 24 0;
#X connect 17 0 25 0;
#X connect 18 0 2 0;
#X connect 19 0 18 0;
#X connect 21 0 18 1;
#X connect 22 0 21 0;
#X connect 25 0 19 0;
#X connect 25 0 23 0;
#X connect 26 0 27 0;
#X connect 27 0 28 0;
#X connect 28 0 34 0;
#X connect 29 0 30 0;
#X connect 30 0 2 0;
#X connect 30 0 32 0;
#X connect 31 0 30 0;
#X connect 34 0 29 0;
#X connect 34 0 33 0;
#X restore 1018 345 pd transpose;
#X obj 722 302 GAMMEKBV GAMMET;
#X obj 76 250 s ACCORDER;
#X floatatom 77 224 5 0 0 0 - - -;
#X obj 365 335 nbx 5 14 0 100 0 0 random-start-snd random-start-rcv
random-start 0 -8 0 10 -262144 -1 -1 0 256;
#N canvas 0 79 450 345 apfs 0;
#X obj 20 18 apf MASTER-G random-start random-start;
#X obj 20 40 r random-start-snd;
#X obj 20 61 s random-start;
#X obj 21 91 apf MASTER-G random-end random-end;
#X obj 22 114 r random-end-snd;
#X obj 22 135 s random-end;
#X obj 24 162 apf MASTER-G random-time random-time;
#X obj 25 185 r random-time-snd;
#X obj 28 244 apf MASTER-G accorder accorder;
#X obj 29 288 s ACCORDER;
#X obj 29 267 r accorder-snd;
#X obj 25 206 s random-time;
#X connect 1 0 2 0;
#X connect 4 0 5 0;
#X connect 7 0 11 0;
#X connect 10 0 9 0;
#X restore 373 365 pd apfs;
#X obj 445 335 nbx 5 14 0 100 0 0 random-end-snd random-end-rcv random-end
0 -8 0 10 -262144 -1 -1 0 256;
#X obj 510 336 nbx 5 14 0 1000 0 0 random-time-snd random-time-rcv
random-time 0 -8 0 10 -262144 -1 -1 8.7202 256;
#X obj 586 335 nbx 5 14 0 30 0 0 accorder-snd accorder-rcv accorder
0 -8 0 10 -262144 -1 -1 20 256;
#X obj 366 211 hsl 128 15 -0.5 0.5 0 0 empty showtuner TUNER -2 -8
0 10 -4034 -1 -1 0 1;
#X obj 428 208 cnv 5 5 20 empty empty empty 20 12 0 14 -258113 -66577
0;
#X msg 1020 292 657;
#N canvas 49 142 653 466 automat 0;
#X obj 33 22 inlet;
#X obj 33 85 - 10000;
#X obj 33 106 / 10000;
#X obj 33 214 clip 0 1;
#X floatatom 33 235 5 0 0 0 - - -;
#X obj 33 193 + 0.5;
#X obj 146 55 +;
#X obj 179 56 * 0.99;
#X obj 33 64 random 20001;
#X obj 146 76 clip -1 1;
#X floatatom 61 172 5 0 0 0 - - -;
#X obj 146 119 +;
#X obj 179 120 * 0.99;
#X obj 146 140 clip -1 1;
#X obj 146 183 +;
#X obj 179 184 * 0.99;
#X obj 146 204 clip -1 1;
#X obj 146 246 + 0.5;
#X obj 146 225 * 0.5;
#X obj 177 299 hsl 128 15 0 1 0 0 empty empty empty -2 -8 0 10 -262144
-1 -1 8655 1;
#X obj 146 359 s MASTER-G-floatpattern;
#X obj 174 276 maxlib/speedlim 200;
#X obj 347 60 +;
#X obj 380 61 * 0.99;
#X obj 347 81 clip -1 1;
#X obj 347 124 +;
#X obj 380 125 * 0.99;
#X obj 347 145 clip -1 1;
#X obj 347 188 +;
#X obj 380 189 * 0.99;
#X obj 347 209 clip -1 1;
#X obj 347 251 + 0.5;
#X obj 347 230 * 0.5;
#X obj 378 304 hsl 128 15 0 1 0 0 empty empty empty -2 -8 0 10 -262144
-1 -1 2626 1;
#X obj 375 281 maxlib/speedlim 200;
#X obj 347 356 s MASTER-GR-floatpattern;
#X obj 146 336 maxlib/speedlim 100;
#X obj 347 334 maxlib/speedlim 100;
#X obj 269 398 outlet;
#X obj 402 401 outlet;
#X obj 146 161 * 0.02;
#X obj 347 166 * 0.02;
#X msg 93 15 2;
#X obj 33 137 * 0.05;
#X obj 145 97 * 0.02;
#X obj 347 102 * 0.02;
#X msg 122 16 200;
#X obj 33 43 metro 200;
#X obj 467 53 - 10000;
#X obj 467 74 / 10000;
#X obj 467 32 random 20001;
#X obj 467 105 * 0.05;
#X connect 0 0 47 0;
#X connect 1 0 2 0;
#X connect 2 0 43 0;
#X connect 3 0 4 0;
#X connect 3 0 5 1;
#X connect 5 0 3 0;
#X connect 6 0 9 0;
#X connect 7 0 6 1;
#X connect 8 0 1 0;
#X connect 9 0 7 0;
#X connect 9 0 44 0;
#X connect 11 0 13 0;
#X connect 12 0 11 1;
#X connect 13 0 12 0;
#X connect 13 0 40 0;
#X connect 14 0 16 0;
#X connect 15 0 14 1;
#X connect 16 0 15 0;
#X connect 16 0 18 0;
#X connect 17 0 21 0;
#X connect 17 0 36 0;
#X connect 18 0 17 0;
#X connect 21 0 19 0;
#X connect 21 0 38 0;
#X connect 22 0 24 0;
#X connect 23 0 22 1;
#X connect 24 0 23 0;
#X connect 24 0 45 0;
#X connect 25 0 27 0;
#X connect 26 0 25 1;
#X connect 27 0 26 0;
#X connect 27 0 41 0;
#X connect 28 0 30 0;
#X connect 29 0 28 1;
#X connect 30 0 29 0;
#X connect 30 0 32 0;
#X connect 31 0 34 0;
#X connect 31 0 37 0;
#X connect 32 0 31 0;
#X connect 34 0 33 0;
#X connect 34 0 39 0;
#X connect 36 0 20 0;
#X connect 37 0 35 0;
#X connect 40 0 14 0;
#X connect 41 0 28 0;
#X connect 42 0 47 1;
#X connect 43 0 6 0;
#X connect 44 0 11 0;
#X connect 45 0 25 0;
#X connect 46 0 47 1;
#X connect 47 0 8 0;
#X connect 47 0 50 0;
#X connect 48 0 49 0;
#X connect 49 0 51 0;
#X connect 50 0 48 0;
#X connect 51 0 22 0;
#X restore 680 475 pd automat;
#X obj 680 454 tgl 15 0 empty empty empty 17 7 0 10 -258705 -1 -1 1
1;
#X obj 683 525 hsl 80 15 0 1 0 0 empty empty MASTER-G -2 -8 0 10 -257985
-1 -1 5384 1;
#X obj 772 524 hsl 80 15 0 1 0 0 empty empty MASTER-GR -2 -8 0 10 -257985
-1 -1 1634 1;
#X obj 258 522 hip~ 100;
#X obj 322 522 hip~ 100;
#X text 884 477 epicerie;
#X text 1046 482 vestiges;
#X text 903 435 OUT1;
#X text 903 521 OUT2;
#X text 1047 433 OUT4;
#X text 960 440 1;
#X text 1005 440 2;
#X text 954 471 4;
#X text 996 486 5;
#X obj 206 8 goutte 3 4 3 Al;
#X obj 109 8 goutte 2 4 1 Ar;
#X obj 303 8 goutte 4 1 2 Al;
#X obj 400 8 goutte 5 3 4 Ar;
#X obj 497 8 goutte 6 3 2 Ar;
#X obj 595 8 goutte 7 3 4 Ar;
#X obj 692 8 goutte 8 3 2 Ar;
#X connect 1 0 10 0;
#X connect 2 0 11 0;
#X connect 6 0 16 0;
#X connect 7 0 17 0;
#X connect 8 0 18 0;
#X connect 9 0 19 0;
#X connect 10 0 68 0;
#X connect 11 0 69 0;
#X connect 12 0 11 1;
#X connect 12 0 10 1;
#X connect 13 0 14 0;
#X connect 14 0 15 0;
#X connect 15 0 12 0;
#X connect 16 0 32 0;
#X connect 17 0 32 1;
#X connect 18 0 32 2;
#X connect 19 0 32 3;
#X connect 20 0 19 1;
#X connect 20 0 18 1;
#X connect 20 0 17 1;
#X connect 20 0 16 1;
#X connect 21 0 22 0;
#X connect 22 0 23 0;
#X connect 23 0 20 0;
#X connect 25 0 24 0;
#X connect 26 0 27 0;
#X connect 28 0 29 0;
#X connect 30 0 0 0;
#X connect 31 0 65 0;
#X connect 38 0 44 3;
#X connect 39 0 40 0;
#X connect 40 0 38 0;
#X connect 41 0 42 0;
#X connect 42 0 43 0;
#X connect 42 0 44 4;
#X connect 44 0 32 0;
#X connect 44 1 32 1;
#X connect 44 2 32 2;
#X connect 44 3 32 3;
#X connect 48 0 49 0;
#X connect 50 0 63 0;
#X connect 55 0 54 0;
#X connect 63 0 51 0;
#X connect 64 0 66 0;
#X connect 64 1 67 0;
#X connect 65 0 64 0;
#X connect 68 0 44 0;
#X connect 69 0 44 1;
