#N canvas 295 124 450 300 10;
#X obj 88 20 inlet~;
#X obj 87 247 outlet~;
#X obj 136 193 delwrite~ \$0-d 1000;
#X obj 87 90 *~ 1;
#X obj 212 31 r FREEZE;
#X obj 108 68 == 0;
#X obj 186 97 sel 0;
#X obj 213 141 *~;
#X obj 252 95 != 0;
#X obj 213 120 delread~ \$0-d;
#X obj 88 42 hip~ 80;
#X connect 0 0 10 0;
#X connect 3 0 1 0;
#X connect 3 0 2 0;
#X connect 4 0 5 0;
#X connect 4 0 6 0;
#X connect 4 0 8 0;
#X connect 5 0 3 1;
#X connect 6 1 9 0;
#X connect 7 0 2 0;
#X connect 7 0 1 0;
#X connect 8 0 7 1;
#X connect 9 0 7 0;
#X connect 10 0 3 0;
