#N canvas 319 134 688 557 10;
#X declare -stdpath Fraise;
#X obj 21 38 pied/pied 0 41424;
#X obj 21 11 declare -stdpath Fraise;
#X obj 414 36 loadbang;
#X msg 414 57 \; pd dsp 1;
#X obj 242 90 fruit/receive fruit1;
#X obj 513 180 fruit/send2 fruit1;
#X obj 23 195 monitor 0;
#X obj 242 152 s channels_list;
#X obj 23 249 monitor 1;
#X obj 23 302 monitor 2;
#X obj 23 356 monitor 3;
#X obj 23 410 monitor 4;
#X obj 23 464 monitor 5;
#X msg 450 146 c 31 c \$1;
#X obj 450 124 tgl 15 0 empty empty empty 17 7 0 10 -262144 -1 -1 0
1;
#X obj 178 39 fruit/fruit 1 fruit1 10 dmxMaster-int;
#X floatatom 528 114 5 0 0 2 modM - -;
#X floatatom 600 113 5 0 0 2 modfM - -;
#X floatatom 528 58 5 0 0 0 - - -;
#X obj 528 78 * 100;
#X msg 528 156 c 37 i \$1;
#X msg 600 155 c 38 i \$1;
#X obj 384 145 r toFruit;
#X obj 242 112 route 30 101;
#X obj 276 133 s fruitParams;
#X obj 24 128 bng 15 250 50 0 empty empty EE_SAVE 17 7 0 10 -258113
-1 -1;
#X msg 24 148 c 200;
#X obj 24 170 s toFruit;
#X obj 102 127 bng 15 250 50 0 getAll empty getAll 17 7 0 10 -260097
-1 -1;
#N canvas 0 79 663 496 DMX 0;
#X obj 56 192 fruit/send2 fruit1;
#X floatatom 56 102 8 0 255 0 - - -;
#X obj 59 72 hsl 128 15 0 255 0 0 empty empty value -2 -8 0 10 -262144
-1 -1 0 1;
#X floatatom 121 102 8 1 255 1 channel - -;
#X msg 56 162 c 30 i \$2 c \$1;
#X obj 56 131 pack f 1;
#X obj 281 122 unpack f f;
#X obj 338 173 * 255;
#X obj 281 194 pack f f, f 10;
#X msg 281 245 c 30 i \$1 c \$2;
#X obj 281 101 r 2DMX;
#X obj 338 147 pow 2;
#X obj 281 173 + 30;
#X obj 281 219 spigot;
#X obj 332 219 tgl 15 0 empty empty empty 17 7 0 10 -262144 -1 -1 0
1;
#X obj 423 125 iemlib/for++ 0 19;
#X obj 423 146 + 0;
#X obj 423 70 t b f;
#X obj 450 95 * 255;
#X obj 423 167 pack f f;
#X obj 427 33 tgl 15 0 empty empty empty 17 7 0 10 -262144 -1 -1 0
1;
#X obj 510 35 hradio 15 1 0 8 empty empty empty 0 -8 0 10 -262144 -1
-1 1;
#X obj 510 55 * 20;
#X floatatom 521 78 5 0 0 0 - - -;
#X obj 44 298 r channels_list;
#X obj 81 344 unpack f f;
#X obj 81 365 * 256;
#X obj 81 386 +, f 10;
#X floatatom 81 407 5 0 0 0 - - -;
#X obj 202 322 metro 1000;
#X obj 202 350 f;
#X obj 202 371 t f f;
#X obj 203 399 -;
#X floatatom 203 420 5 0 0 0 - - -;
#X obj 202 298 tgl 15 0 empty empty empty 17 7 0 10 -262144 -1 -1 1
1;
#X obj 202 274 loadbang;
#X msg 261 411 1000 \$1;
#X obj 261 432 /;
#X floatatom 261 453 5 0 0 0 - - -;
#X obj 44 319 list split 24;
#X connect 1 0 5 0;
#X connect 2 0 1 0;
#X connect 3 0 5 1;
#X connect 4 0 0 0;
#X connect 5 0 4 0;
#X connect 6 0 12 0;
#X connect 6 1 11 0;
#X connect 7 0 8 1;
#X connect 8 0 13 0;
#X connect 9 0 0 0;
#X connect 10 0 6 0;
#X connect 11 0 7 0;
#X connect 12 0 8 0;
#X connect 13 0 9 0;
#X connect 14 0 13 1;
#X connect 15 0 16 0;
#X connect 16 0 19 0;
#X connect 17 0 15 0;
#X connect 17 1 18 0;
#X connect 18 0 19 1;
#X connect 19 0 9 0;
#X connect 20 0 17 0;
#X connect 21 0 22 0;
#X connect 22 0 23 0;
#X connect 23 0 16 1;
#X connect 24 0 39 0;
#X connect 25 0 26 0;
#X connect 25 1 27 1;
#X connect 26 0 27 0;
#X connect 27 0 28 0;
#X connect 27 0 30 1;
#X connect 29 0 30 0;
#X connect 30 0 31 0;
#X connect 31 0 32 1;
#X connect 31 1 32 0;
#X connect 32 0 33 0;
#X connect 33 0 36 0;
#X connect 34 0 29 0;
#X connect 35 0 34 0;
#X connect 36 0 37 0;
#X connect 37 0 38 0;
#X connect 39 1 25 0;
#X restore 179 88 pd DMX;
#N canvas 0 79 462 342 simul 0;
#X obj 212 9 loadbang;
#X obj 212 31 tgl 15 0 empty empty empty 17 7 0 10 -262144 -1 -1 0
1;
#X obj 212 51 metro 25;
#X obj 212 72 s TICK;
#X obj 25 30 channel 0;
#X obj 25 74 channel 1;
#X obj 25 120 channel 2;
#X obj 25 164 channel 3;
#X obj 24 209 channel 4;
#X obj 24 252 channel 5;
#X obj 222 108 vsl 15 128 0 1 0 1 CONST empty CONST 0 -9 0 10 -262144
-1 -1 9700 1;
#X obj 267 106 vsl 15 128 0 200 0 1 MOD1 empty MOD1 0 -9 0 10 -262144
-1 -1 5100 1;
#X obj 302 108 vsl 15 128 0 100 0 1 MOD2 empty MOD2 0 -9 0 10 -262144
-1 -1 0 1;
#X connect 1 0 2 0;
#X connect 2 0 3 0;
#X restore 178 106 pd simul;
#X text 540 130 2000;
#X text 608 129 10;
#X connect 2 0 3 0;
#X connect 4 0 23 0;
#X connect 13 0 5 0;
#X connect 14 0 13 0;
#X connect 16 0 20 0;
#X connect 17 0 21 0;
#X connect 18 0 19 0;
#X connect 19 0 16 0;
#X connect 20 0 5 0;
#X connect 21 0 5 0;
#X connect 22 0 5 0;
#X connect 23 0 7 0;
#X connect 23 1 24 0;
#X connect 25 0 26 0;
#X connect 26 0 27 0;
