#N canvas 239 644 553 378 10;
#X obj 63 46 r TICK;
#X obj 130 32 noise~;
#X obj 63 172 snapshot~;
#X obj 131 59 lop~ 0.1;
#X obj 252 35 noise~;
#X obj 131 88 lop~ 0.1;
#X obj 197 88 r MOD1;
#X obj 63 219 +;
#X obj 98 195 r CONST;
#X obj 63 279 pack f 100;
#X obj 63 300 line;
#X obj 136 249 r SMOOTH;
#X obj 253 60 lop~ 0.2;
#X obj 318 81 r MOD2;
#X obj 63 321 list prepend \$1;
#X obj 63 342 s 2DMX;
#X obj 210 273 hsl 128 15 0 1 0 0 empty empty empty -2 -8 0 10 -262144
-1 -1 6000 1;
#X obj 63 249 clip 0 1;
#X obj 253 81 lop~ 1;
#X obj 131 121 *~ 0;
#X obj 252 116 *~ 0;
#X connect 0 0 2 0;
#X connect 1 0 3 0;
#X connect 2 0 7 0;
#X connect 3 0 5 0;
#X connect 4 0 12 0;
#X connect 5 0 19 0;
#X connect 6 0 19 1;
#X connect 7 0 17 0;
#X connect 8 0 7 1;
#X connect 9 0 10 0;
#X connect 10 0 14 0;
#X connect 10 0 16 0;
#X connect 11 0 9 1;
#X connect 12 0 18 0;
#X connect 13 0 20 1;
#X connect 14 0 15 0;
#X connect 17 0 9 0;
#X connect 18 0 20 0;
#X connect 19 0 2 0;
#X connect 20 0 2 0;
#X coords 0 -1 1 1 150 40 1 200 250;
