#N canvas 280 98 1022 625 10;
#X obj 78 40 r channels_list;
#X obj 106 85 list split 2;
#X obj 106 109 unpack f f;
#X obj 106 130 * 256;
#X obj 106 151 +;
#X obj 106 174 moses 32678;
#X obj 169 196 - 65636;
#X obj 106 215 f;
#X obj 78 61 list split;
#X obj 255 53 loadbang;
#X obj 255 74 f \$1;
#X obj 255 95 * 2;
#X obj 320 55 bng 15 250 50 0 empty empty empty 17 7 0 10 -262144 -1
-1;
#X obj 108 282 hsl 128 15 0 1024 0 0 empty empty lamp 5 8 0 10 -262144
-1 -86277 4663 1;
#X obj 739 107 cnv 5 5 30 empty empty empty 20 12 0 14 -260097 -66577
0;
#X obj 382 89 list split 2;
#X obj 382 113 unpack f f;
#X obj 382 134 * 256;
#X obj 382 155 +;
#X obj 382 178 moses 32678;
#X obj 445 200 - 65636;
#X obj 382 219 f;
#X obj 354 65 list split;
#X obj 531 57 loadbang;
#X obj 531 78 f \$1;
#X obj 531 99 * 2;
#X obj 266 282 hsl 128 15 0 1024 0 0 empty empty motor 5 8 0 10 -262144
-1 -13381 9029 1;
#X obj 531 120 + 12;
#X obj 354 43 r channels_list;
#X obj 510 55 bng 15 250 50 0 empty empty empty 17 7 0 10 -262144 -1
-1;
#X msg 310 199 512;
#X floatatom 206 282 5 0 0 0 - - -;
#X floatatom 364 282 5 0 0 0 - - -;
#X obj 178 263 nbx 4 14 0.9 1023 1 0 \$0-offset-snd \$0-offset-rcv
offset 0 -6 0 10 -262144 -1 -1 200 256;
#X obj 228 263 nbx 5 14 0.9 32768 1 0 \$0-mod1-snd \$0-mod1-rcv mod1
0 -6 0 10 -262144 -1 -1 475 512;
#X obj 286 263 nbx 2 14 1 10 0 0 \$0-modf1-snd \$0-modf1-rcv modf1
0 -6 0 10 -262144 -1 -1 7 256;
#X obj 322 264 nbx 5 14 0.9 32768 1 0 \$0-mod2-snd \$0-mod2-rcv mod2
0 -6 0 10 -262144 -1 -1 259 512;
#X obj 378 264 nbx 2 14 1 10 0 0 \$0-modf2-snd \$0-modf2-rcv modf2
0 -6 0 10 -262144 -1 -1 4 256;
#X obj 416 490 f \$1;
#X obj 416 470 b;
#X obj 416 381 r \$0-offset-snd;
#X obj 416 402 i;
#X obj 416 423 t b f;
#X obj 517 402 i;
#X obj 517 423 t b f;
#X obj 517 381 r \$0-mod1-snd;
#X obj 608 401 i;
#X obj 608 422 t b f;
#X obj 608 380 r \$0-modf1-snd;
#X obj 709 402 i;
#X obj 709 423 t b f;
#X obj 800 401 i;
#X obj 800 422 t b f;
#X obj 709 381 r \$0-mod2-snd;
#X obj 800 380 r \$0-modf2-snd;
#X obj 416 511 pack f f f f f f, f 62;
#X msg 416 532 c 100 c \$1 i \$2 i \$3 c \$4 i \$5 c \$6;
#X obj 416 553 s toFruit;
#X obj 509 246 r fruitParams;
#X obj 509 267 route \$1, f 13;
#N canvas 0 79 450 300 int 0;
#X obj 107 19 inlet;
#X obj 107 42 list split 2;
#X obj 107 64 unpack f f;
#X obj 107 85 * 256;
#X obj 107 106 +;
#X obj 107 127 outlet;
#X obj 197 132 outlet;
#X connect 0 0 1 0;
#X connect 1 0 2 0;
#X connect 1 1 6 0;
#X connect 2 0 3 0;
#X connect 2 1 4 1;
#X connect 3 0 4 0;
#X connect 4 0 5 0;
#X restore 509 290 pd int;
#X f 15;
#X obj 611 333 s \$0-mod1-rcv;
#X msg 611 314 set \$1;
#X msg 509 310 set \$1;
#X obj 509 329 s \$0-offset-rcv;
#N canvas 0 79 450 300 int 0;
#X obj 107 19 inlet;
#X obj 107 42 list split 2;
#X obj 107 64 unpack f f;
#X obj 107 85 * 256;
#X obj 107 106 +;
#X obj 107 127 outlet;
#X obj 197 132 outlet;
#X connect 0 0 1 0;
#X connect 1 0 2 0;
#X connect 1 1 6 0;
#X connect 2 0 3 0;
#X connect 2 1 4 1;
#X connect 3 0 4 0;
#X connect 4 0 5 0;
#X restore 611 291 pd int;
#X f 15;
#X obj 714 291 list split 1;
#X msg 714 312 set \$1;
#X obj 714 331 s \$0-modf1-rcv;
#X msg 806 313 set \$1;
#N canvas 0 79 450 300 int 0;
#X obj 107 19 inlet;
#X obj 107 42 list split 2;
#X obj 107 64 unpack f f;
#X obj 107 85 * 256;
#X obj 107 106 +;
#X obj 107 127 outlet;
#X obj 197 132 outlet;
#X connect 0 0 1 0;
#X connect 1 0 2 0;
#X connect 1 1 6 0;
#X connect 2 0 3 0;
#X connect 2 1 4 1;
#X connect 3 0 4 0;
#X connect 4 0 5 0;
#X restore 806 290 pd int;
#X f 15;
#X obj 909 290 list split 1;
#X msg 909 311 set \$1;
#X obj 806 332 s \$0-mod2-rcv;
#X obj 909 330 s \$0-modf2-rcv;
#X obj 408 280 bng 15 250 50 0 empty empty get 0 -6 0 8 -257985 -1
-1;
#X obj 408 232 r getAll;
#X obj 297 375 b;
#X obj 297 396 f \$1;
#X msg 297 417 c 101 c \$1;
#X connect 0 0 8 0;
#X connect 1 0 2 0;
#X connect 2 0 3 0;
#X connect 2 1 4 1;
#X connect 3 0 4 0;
#X connect 4 0 5 0;
#X connect 5 0 7 0;
#X connect 5 1 6 0;
#X connect 6 0 7 0;
#X connect 7 0 13 0;
#X connect 7 0 31 0;
#X connect 8 1 1 0;
#X connect 9 0 10 0;
#X connect 10 0 11 0;
#X connect 11 0 8 1;
#X connect 12 0 10 0;
#X connect 15 0 16 0;
#X connect 16 0 17 0;
#X connect 16 1 18 1;
#X connect 17 0 18 0;
#X connect 18 0 19 0;
#X connect 19 0 21 0;
#X connect 19 1 20 0;
#X connect 20 0 21 0;
#X connect 21 0 26 0;
#X connect 21 0 32 0;
#X connect 22 1 15 0;
#X connect 23 0 24 0;
#X connect 24 0 25 0;
#X connect 25 0 27 0;
#X connect 27 0 22 1;
#X connect 28 0 22 0;
#X connect 29 0 24 0;
#X connect 30 0 26 0;
#X connect 38 0 55 0;
#X connect 39 0 38 0;
#X connect 40 0 41 0;
#X connect 41 0 42 0;
#X connect 42 0 39 0;
#X connect 42 1 55 1;
#X connect 43 0 44 0;
#X connect 44 0 39 0;
#X connect 44 1 55 2;
#X connect 45 0 43 0;
#X connect 46 0 47 0;
#X connect 47 0 39 0;
#X connect 47 1 55 3;
#X connect 48 0 46 0;
#X connect 49 0 50 0;
#X connect 50 0 39 0;
#X connect 50 1 55 4;
#X connect 51 0 52 0;
#X connect 52 0 39 0;
#X connect 52 1 55 5;
#X connect 53 0 49 0;
#X connect 54 0 51 0;
#X connect 55 0 56 0;
#X connect 56 0 57 0;
#X connect 58 0 59 0;
#X connect 59 0 60 0;
#X connect 60 0 63 0;
#X connect 60 0 55 1;
#X connect 60 1 65 0;
#X connect 62 0 61 0;
#X connect 63 0 64 0;
#X connect 65 0 62 0;
#X connect 65 0 55 2;
#X connect 65 1 66 0;
#X connect 66 0 67 0;
#X connect 66 0 55 3;
#X connect 66 1 70 0;
#X connect 67 0 68 0;
#X connect 69 0 73 0;
#X connect 70 0 69 0;
#X connect 70 0 55 4;
#X connect 70 1 71 0;
#X connect 71 0 72 0;
#X connect 71 0 55 5;
#X connect 72 0 74 0;
#X connect 75 0 77 0;
#X connect 76 0 75 0;
#X connect 77 0 78 0;
#X connect 78 0 79 0;
#X connect 79 0 57 0;
#X coords 0 -1 1 1 330 50 1 100 250;
